<?xml version="1.0" standalone="no"?>
<!DOCTYPE svg PUBLIC "-//W3C//DTD SVG 20010904//EN"
 "http://www.w3.org/TR/2001/REC-SVG-20010904/DTD/svg10.dtd">
<svg version="1.0" xmlns="http://www.w3.org/2000/svg"
 width="900.000000pt" height="840.000000pt" viewBox="0 0 900.000000 840.000000"
 preserveAspectRatio="xMidYMid meet">

<g transform="translate(0.000000,840.000000) scale(0.100000,-0.100000)"
fill="#000000" stroke="none">
<path d="M2360 8386 c-423 -75 -805 -373 -1157 -901 -77 -116 -75 -113 -64
-119 5 -4 26 18 47 46 86 120 154 196 240 267 158 131 320 210 527 258 153 35
370 37 529 5 448 -92 827 -363 1089 -778 165 -262 276 -573 333 -934 23 -146
39 -448 31 -607 l-7 -143 64 0 c34 0 230 -7 433 -14 204 -8 460 -18 570 -22
l201 -7 -1 304 c0 314 8 418 47 619 128 663 476 1172 980 1431 169 86 304 129
488 154 132 18 208 18 340 0 339 -45 634 -219 836 -492 47 -63 74 -88 74 -67
0 11 -131 196 -208 294 -100 128 -337 362 -442 436 -180 129 -345 206 -526
246 -127 28 -328 30 -454 3 -314 -65 -608 -237 -914 -535 -310 -301 -548 -626
-833 -1138 l-30 -53 -68 123 c-434 784 -991 1356 -1512 1554 -190 72 -442 100
-613 70z"/>
<path d="M3542 6405 c-638 -340 -1059 -961 -1132 -1672 -12 -109 -10 -416 1
-428 10 -10 135 55 330 172 l176 105 12 107 c51 469 320 914 705 1165 l79 51
-6 135 c-4 74 -12 199 -18 278 -10 119 -15 142 -28 142 -9 0 -62 -25 -119 -55z"/>
<path d="M5496 6358 c-3 -29 -9 -161 -13 -293 l-6 -241 65 -52 c333 -264 570
-709 594 -1112 3 -52 7 -105 10 -116 3 -17 56 -48 236 -137 128 -64 242 -118
253 -119 19 -3 20 4 26 97 3 55 2 172 -3 259 -37 659 -380 1262 -927 1635 -79
53 -211 131 -223 131 -3 0 -8 -24 -12 -52z"/>
<path d="M8658 6024 c-4 -3 11 -45 32 -92 217 -490 109 -1033 -284 -1427 -210
-210 -510 -368 -826 -434 -578 -121 -1228 33 -1856 440 -80 52 -97 60 -108 48
-22 -24 -659 -1032 -663 -1050 -4 -14 18 -29 105 -73 417 -209 780 -504 1018
-826 271 -368 414 -830 375 -1220 -22 -216 -63 -364 -145 -530 -181 -362 -487
-601 -873 -679 -56 -12 -119 -21 -141 -21 -47 0 -72 -8 -72 -22 0 -17 304 12
495 48 205 38 397 101 562 185 382 193 598 485 674 909 20 112 18 438 -4 575
-72 442 -270 959 -556 1447 -45 76 -81 140 -81 142 0 3 118 5 263 5 534 0 960
60 1357 191 162 54 420 180 540 266 193 137 353 328 435 521 171 397 106 922
-186 1506 -50 99 -52 101 -61 91z"/>
<path d="M244 5863 c-308 -720 -324 -1285 -47 -1701 261 -392 754 -628 1503
-718 178 -21 658 -30 864 -15 88 6 161 10 162 8 2 -1 -50 -108 -114 -237 -229
-458 -376 -888 -437 -1280 -23 -144 -31 -456 -15 -573 27 -204 82 -376 168
-520 249 -420 728 -636 1471 -664 147 -5 173 -4 169 8 -3 10 -33 16 -115 20
-337 20 -624 160 -851 414 -162 182 -283 440 -328 700 -35 208 -21 486 38 705
125 467 429 894 881 1235 104 78 303 211 386 256 34 19 61 37 61 42 0 5 -85
151 -188 325 -104 174 -246 414 -317 532 -70 118 -131 219 -136 225 -6 6 -14
6 -23 0 -8 -6 -58 -42 -112 -82 -389 -282 -780 -453 -1200 -525 -166 -28 -455
-30 -609 -4 -413 69 -753 256 -992 541 -70 85 -105 139 -163 252 -91 177 -129
339 -130 553 0 175 27 319 86 462 26 63 29 78 14 78 -5 0 -17 -17 -26 -37z"/>
<path d="M3723 2991 c-114 -77 -325 -234 -342 -255 -13 -15 15 -36 139 -104
638 -348 1461 -334 2085 36 33 19 62 37 64 38 10 8 -31 40 -153 123 -159 107
-312 201 -329 201 -7 0 -62 -18 -124 -40 -290 -102 -619 -118 -913 -45 -104
26 -224 67 -282 96 -21 11 -39 19 -41 19 -2 0 -49 -31 -104 -69z"/>
</g>
</svg>
